<svg width="735" height="27" viewBox="0 0 735 27" fill="none" xmlns="http://www.w3.org/2000/svg">
<circle cx="720.94" cy="13.2051" r="12.7651" transform="rotate(180 720.94 13.2051)" fill="white" stroke="#65C466" stroke-width="0.880352"/>
<path d="M727.414 13.5166C727.586 13.3447 727.586 13.066 727.414 12.8941L724.613 10.0928C724.441 9.92091 724.162 9.92091 723.99 10.0928C723.818 10.2647 723.818 10.5434 723.99 10.7153L726.48 13.2053L723.99 15.6953C723.818 15.8672 723.818 16.1459 723.99 16.3178C724.162 16.4897 724.441 16.4897 724.613 16.3178L727.414 13.5166ZM713.897 13.6455L727.103 13.6455L727.103 12.7651L713.897 12.7651L713.897 13.6455Z" fill="#65C466"/>
<circle cx="13.2053" cy="13.205" r="12.7651" fill="white" stroke="#65C466" stroke-width="0.880352"/>
<path d="M6.73103 12.8936C6.55913 13.0655 6.55913 13.3442 6.73103 13.5161L9.53229 16.3173C9.70419 16.4892 9.98289 16.4892 10.1548 16.3173C10.3267 16.1454 10.3267 15.8667 10.1548 15.6948L7.66478 13.2048L10.1548 10.7148C10.3267 10.5429 10.3267 10.2642 10.1548 10.0923C9.98289 9.92042 9.70419 9.92042 9.53229 10.0923L6.73103 12.8936ZM20.2476 12.7647H7.04228V13.645H20.2476V12.7647Z" fill="#65C466"/>
</svg>
